<?xml version="1.0" standalone="no"?>
<!DOCTYPE svg PUBLIC "-//W3C//DTD SVG 20010904//EN"
 "http://www.w3.org/TR/2001/REC-SVG-20010904/DTD/svg10.dtd">
<svg version="1.0" xmlns="http://www.w3.org/2000/svg"
 width="432.000000pt" height="578.000000pt" viewBox="0 0 432.000000 578.000000"
 preserveAspectRatio="xMidYMid meet">

<g transform="translate(0.000000,578.000000) scale(0.100000,-0.100000)"
fill="#000000" stroke="none">
<path d="M1142 5245 c-64 -25 -152 -88 -152 -109 0 -6 -8 -16 -19 -23 -34 -21
-71 -135 -71 -218 0 -109 32 -179 119 -264 58 -56 79 -70 140 -90 57 -19 85
-22 134 -18 88 8 159 32 195 67 18 16 35 30 40 30 4 0 24 21 44 48 51 67 71
137 70 244 -1 82 -4 93 -38 159 -41 77 -86 120 -174 164 -81 41 -200 45 -288
10z m204 -111 c105 -36 159 -98 178 -207 17 -91 -45 -202 -141 -253 -53 -28
-152 -33 -206 -10 -34 14 -112 89 -134 128 -15 28 -17 156 -2 195 17 44 75
109 116 128 77 37 123 41 189 19z"/>
<path d="M1265 5114 c-6 -1 -27 -5 -48 -9 -47 -8 -113 -65 -138 -120 -31 -66
-21 -161 22 -216 19 -24 19 -24 3 16 -55 136 56 295 206 295 30 0 68 -7 84
-15 26 -14 27 -14 16 0 -8 9 -22 20 -32 26 -20 11 -98 27 -113 23z"/>
<path d="M2280 5255 c-140 -53 -210 -131 -259 -286 -45 -145 72 -361 227 -419
175 -66 349 -11 455 143 75 108 86 255 29 360 -44 82 -127 161 -197 188 -72
27 -202 35 -255 14z m229 -141 c42 -21 61 -39 92 -87 35 -54 39 -67 39 -124 0
-81 -15 -116 -77 -180 -151 -155 -414 -53 -416 161 -1 90 18 144 67 191 79 76
189 90 295 39z"/>
<path d="M2288 5090 c-49 -26 -105 -100 -113 -150 -9 -52 1 -109 25 -140 l19
-25 -8 36 c-17 76 15 174 70 217 68 54 179 70 237 36 l27 -16 -23 21 c-50 44
-170 54 -234 21z"/>
<path d="M3380 5247 c-114 -39 -203 -131 -237 -247 -23 -76 -20 -143 10 -229
23 -65 35 -82 97 -142 85 -81 138 -103 250 -104 113 0 202 37 276 115 71 74
110 187 100 290 -9 90 -63 197 -127 250 -101 86 -241 111 -369 67z m236 -128
c55 -26 87 -58 113 -114 25 -52 28 -140 7 -199 -16 -47 -61 -106 -81 -106 -8
0 -15 -4 -15 -10 0 -19 -73 -40 -139 -40 -58 0 -74 4 -118 33 -157 99 -177
285 -43 400 79 67 180 81 276 36z m9 -489 c3 -6 -1 -7 -9 -4 -18 7 -21 14 -7
14 6 0 13 -4 16 -10z"/>
<path d="M3415 5096 c-95 -43 -147 -166 -114 -267 20 -58 24 -51 23 41 0 49 2
87 6 85 4 -3 19 13 33 34 39 58 102 91 177 91 34 0 71 -5 82 -11 15 -8 19 -8
14 0 -23 37 -161 54 -221 27z"/>
<path d="M3880 5063 c46 -96 42 -240 -10 -344 -45 -89 -101 -144 -189 -187
-72 -35 -81 -37 -176 -37 -88 0 -107 3 -158 27 -68 32 -67 18 1 -16 139 -70
331 -54 444 38 93 76 168 242 154 341 -8 62 -44 166 -67 195 -19 24 -19 24 1
-17z"/>
<path d="M2766 5065 c36 -112 40 -168 18 -265 -36 -158 -183 -290 -341 -306
-35 -4 -63 -11 -63 -17 0 -5 -5 -5 -13 1 -7 7 -38 17 -68 23 -30 6 -64 17 -76
25 -29 18 -39 18 -23 -1 48 -58 272 -80 381 -37 85 34 168 114 210 204 31 67
34 81 34 168 0 87 -3 100 -33 160 -18 36 -29 56 -26 45z"/>
<path d="M1650 5067 c0 -5 5 -18 11 -29 19 -35 27 -130 17 -202 -18 -128 -100
-241 -220 -301 -39 -19 -81 -35 -93 -35 -12 0 -25 -3 -28 -7 -10 -9 -113 -4
-167 9 -25 6 -62 22 -83 35 -22 14 -41 23 -43 21 -9 -9 88 -61 150 -80 126
-38 276 -11 369 68 56 47 115 131 132 188 29 96 13 265 -29 321 -9 11 -16 16
-16 12z"/>
<path d="M576 4520 c-14 -18 -26 -38 -26 -47 0 -24 51 -65 134 -106 69 -35 78
-37 103 -25 22 10 29 21 31 49 3 41 -1 46 -78 84 -30 16 -64 36 -75 45 -38 33
-61 33 -89 0z"/>
<path d="M850 4424 c27 -43 -32 -124 -89 -124 -14 0 -62 21 -106 46 -44 25
-75 40 -69 34 24 -25 180 -110 201 -110 68 0 113 55 93 115 -6 18 -18 39 -27
47 -15 12 -15 11 -3 -8z"/>
<path d="M1180 4301 c-51 -16 -86 -40 -118 -80 -63 -78 -62 -71 -62 -647 l0
-524 -22 0 c-15 0 -47 25 -92 71 -78 80 -128 114 -195 135 -96 29 -172 12
-231 -52 -67 -73 -78 -142 -37 -249 8 -22 28 -76 45 -121 17 -44 39 -98 50
-120 84 -165 119 -317 132 -573 7 -154 13 -193 31 -240 42 -104 85 -162 211
-289 94 -95 129 -137 138 -167 7 -22 15 -99 17 -170 l5 -131 -27 -12 c-14 -7
-38 -12 -53 -12 -15 0 -38 -7 -50 -16 -22 -15 -22 -18 -22 -258 0 -225 1 -246
19 -267 l19 -24 843 2 c790 2 844 3 856 19 10 13 13 80 13 264 0 227 -2 248
-18 263 -10 10 -27 17 -38 17 -11 0 -30 7 -42 16 -21 14 -22 22 -22 155 0 130
2 144 26 195 14 30 30 54 35 54 5 0 30 42 54 93 54 112 60 173 20 212 -35 36
-56 33 -88 -15 -9 -13 -17 -41 -17 -60 0 -44 -38 -122 -85 -178 -53 -61 -65
-113 -65 -288 0 -179 0 -178 -94 -175 -36 1 -67 -3 -71 -9 -3 -6 -12 -7 -18
-3 -7 5 -240 8 -520 9 -389 0 -510 3 -520 13 -8 8 -14 63 -17 164 -7 206 -15
223 -191 398 -175 176 -180 187 -191 413 -11 253 -55 433 -168 686 -23 52 -48
109 -55 125 -60 137 -44 215 46 215 130 0 261 -159 336 -410 23 -79 29 -101
54 -202 18 -72 69 -90 107 -38 l22 29 0 784 c0 548 3 794 11 816 14 40 60 64
119 65 61 0 88 -17 111 -71 18 -43 19 -74 19 -664 l0 -620 26 -24 c35 -33 48
-31 78 8 l26 34 0 294 c0 260 2 298 18 329 38 77 152 82 217 10 19 -21 20 -40
25 -365 5 -319 6 -344 24 -364 19 -21 51 -27 72 -13 29 19 34 56 34 264 0 187
3 218 19 255 11 23 30 48 43 57 48 31 135 20 168 -21 19 -24 20 -40 20 -308 0
-277 0 -283 23 -316 27 -40 53 -46 87 -20 24 19 25 26 30 153 6 146 17 180 70
212 59 34 159 7 180 -50 6 -14 10 -117 10 -229 l0 -203 26 -31 c31 -38 41 -38
77 -6 l27 26 0 220 0 220 -29 57 c-34 68 -51 84 -115 113 -42 18 -63 21 -145
18 l-96 -4 -6 60 c-7 76 -14 97 -50 151 -29 42 -47 56 -119 90 -34 16 -125 16
-192 -1 -24 -6 -29 -3 -39 21 -28 73 -47 99 -102 140 -68 52 -126 67 -201 53
-77 -14 -76 -17 -76 217 0 178 -2 210 -20 255 -45 121 -112 171 -230 176 -36
1 -76 -1 -90 -6z m-223 -3313 c-3 -7 -5 -2 -5 12 0 14 2 19 5 13 2 -7 2 -19 0
-25z m1564 -16 c4 -50 -4 -278 -10 -285 -4 -4 -338 -6 -742 -5 l-734 3 0 150
0 150 600 5 c781 7 885 4 886 -18z m-1574 -149 c-3 -10 -5 -4 -5 12 0 17 2 24
5 18 2 -7 2 -21 0 -30z"/>
<path d="M1060 835 c0 -104 2 -125 15 -125 12 0 15 19 15 110 l0 110 705 0
c620 0 705 2 705 15 0 13 -87 15 -720 15 l-720 0 0 -125z"/>
<path d="M2285 4291 c-140 -35 -274 -211 -274 -361 -1 -104 82 -256 167 -310
73 -46 142 -63 236 -57 114 6 176 36 254 124 76 83 97 137 97 248 0 71 -4 89
-32 146 -43 87 -128 168 -206 197 -60 23 -177 29 -242 13z m217 -139 c47 -22
126 -116 134 -160 11 -59 -2 -147 -27 -183 -67 -97 -114 -123 -219 -123 -111
0 -186 46 -226 139 -22 50 -22 157 -1 206 19 47 81 111 121 126 49 18 175 15
218 -5z"/>
<path d="M2333 4140 c-40 -9 -106 -61 -132 -104 -38 -61 -36 -183 3 -215 12
-10 13 -6 6 25 -12 50 4 129 35 175 15 24 44 47 79 64 48 23 66 27 121 23 74
-5 75 12 0 31 -49 12 -65 12 -112 1z"/>
<path d="M3374 4282 c-67 -24 -168 -111 -198 -171 -13 -25 -31 -75 -40 -111
-16 -61 -17 -70 -1 -135 35 -152 117 -245 254 -288 192 -61 397 37 467 223 27
71 24 191 -5 268 -28 75 -113 167 -188 203 -66 32 -215 38 -289 11z m283 -158
c66 -55 93 -111 93 -193 0 -47 -6 -78 -24 -115 -28 -59 -44 -75 -103 -105
-123 -62 -266 -22 -337 94 -28 45 -31 58 -30 125 1 84 21 130 83 185 54 48 78
55 178 53 90 -3 91 -3 140 -44z"/>
<path d="M3438 4136 c-89 -32 -148 -114 -148 -207 0 -44 17 -99 37 -119 14
-13 14 -12 3 9 -7 14 -11 49 -8 86 7 114 86 195 198 203 33 2 73 -1 91 -7 27
-9 30 -9 19 4 -13 16 -101 45 -134 45 -12 -1 -38 -7 -58 -14z"/>
<path d="M1536 4143 c10 -33 14 -105 14 -255 0 -163 3 -209 13 -205 9 3 12 53
12 208 0 189 -2 208 -22 252 -28 60 -35 60 -17 0z"/>
<path d="M1235 4152 c-32 -11 -51 -25 -64 -49 -8 -16 -11 -235 -11 -801 0
-545 -3 -789 -11 -811 -13 -37 -66 -64 -108 -55 -25 5 -25 5 -6 -11 48 -38
106 -31 135 18 19 31 20 54 20 815 0 870 -4 824 68 856 32 15 44 16 62 6 17
-9 21 -9 15 0 -6 10 -69 42 -77 39 -2 -1 -12 -4 -23 -7z"/>
<path d="M3875 4105 c4 -11 14 -38 22 -60 11 -28 14 -68 11 -135 -4 -82 -8
-103 -35 -155 -93 -180 -275 -266 -467 -221 -37 9 -82 26 -100 38 -30 21 -30
21 -13 1 10 -11 56 -35 102 -53 77 -30 91 -32 167 -28 127 8 228 61 300 157
15 20 30 43 34 51 3 8 12 29 19 45 8 17 19 60 25 96 10 59 9 75 -10 146 -12
44 -30 93 -42 109 -11 16 -17 20 -13 9z"/>
<path d="M2766 4095 c29 -88 37 -152 26 -218 -36 -233 -246 -389 -470 -348
-37 7 -89 23 -117 37 -28 14 -41 18 -30 8 11 -9 49 -30 85 -47 90 -42 198 -48
289 -17 117 39 191 106 245 220 28 58 31 74 31 160 0 87 -3 100 -33 160 -18
36 -29 56 -26 45z"/>
<path d="M670 4088 c-19 -5 -56 -14 -82 -20 -57 -13 -101 -49 -91 -75 19 -56
53 -63 176 -39 106 20 147 75 94 124 -25 24 -42 25 -97 10z"/>
<path d="M820 4034 c0 -57 -30 -80 -131 -103 -50 -12 -106 -21 -126 -21 -30 0
-34 -2 -23 -15 28 -34 257 1 292 45 22 27 23 79 3 106 -14 18 -14 17 -15 -12z"/>
<path d="M1917 3512 c3 -12 9 -25 14 -28 14 -8 11 10 -6 32 -13 18 -14 18 -8
-4z"/>
<path d="M1595 3488 c-45 -24 -45 -27 -45 -357 -1 -233 -4 -320 -13 -332 -18
-24 -77 -51 -98 -46 -28 7 -23 -8 6 -21 52 -24 95 -10 120 38 12 24 15 81 15
333 l0 305 30 32 c26 28 35 32 71 28 41 -4 41 -4 19 14 -25 20 -75 23 -105 6z"/>
<path d="M3398 3321 c-139 -45 -237 -159 -269 -309 -12 -61 4 -148 42 -226 28
-55 110 -130 186 -168 60 -29 66 -30 167 -26 102 3 105 4 161 43 92 63 139
116 166 187 59 156 7 350 -116 434 -115 78 -229 100 -337 65z m171 -122 c73
-15 128 -59 158 -126 22 -47 25 -65 21 -127 -3 -39 -12 -86 -22 -103 -22 -44
-107 -110 -159 -124 -100 -28 -229 29 -287 125 -20 34 -24 54 -25 116 0 65 4
81 28 122 35 57 87 98 147 114 58 16 78 16 139 3z"/>
<path d="M3408 3155 c-56 -30 -92 -74 -108 -134 -13 -50 -6 -120 16 -163 18
-35 27 -36 14 -2 -15 39 -12 121 6 157 20 40 71 95 104 112 38 19 111 27 149
15 49 -14 50 -5 2 19 -55 29 -123 27 -183 -4z"/>
<path d="M2314 3296 c3 -14 9 -46 13 -71 3 -28 11 -45 19 -45 18 0 18 14 -1
78 -16 54 -44 88 -31 38z"/>
<path d="M2011 3297 c-13 -6 -34 -25 -45 -40 -20 -27 -21 -43 -24 -268 l-4
-239 -32 -25 c-18 -14 -45 -25 -61 -25 -23 0 -26 -2 -15 -15 7 -8 27 -15 45
-15 89 0 95 19 95 285 0 215 0 217 26 261 27 46 54 60 99 52 33 -7 31 -2 -7
22 -38 23 -45 24 -77 7z"/>
<path d="M3891 3099 c20 -53 27 -177 13 -234 -30 -124 -146 -249 -265 -286
-112 -35 -289 -16 -352 38 -21 18 -21 18 -7 -1 8 -11 42 -32 74 -47 249 -118
509 3 578 268 18 70 19 85 8 143 -12 60 -53 170 -63 170 -3 0 4 -23 14 -51z"/>
<path d="M573 3098 c-19 -25 -21 -45 -5 -79 l16 -34 4 30 c4 36 28 65 52 65
10 0 34 -7 54 -15 53 -22 44 -9 -14 20 -54 27 -92 32 -107 13z"/>
<path d="M2690 3049 c0 -4 7 -22 15 -42 22 -54 23 -489 0 -523 -17 -27 -51
-38 -95 -32 -38 6 -31 -4 19 -27 39 -17 41 -17 73 2 18 10 39 30 45 44 15 29
17 390 3 455 -8 35 -60 141 -60 123z"/>
<path d="M2393 2990 c-42 -17 -57 -65 -63 -203 l-5 -129 -34 -30 c-26 -24 -41
-29 -67 -26 -19 2 -34 3 -34 1 0 -7 61 -33 79 -33 34 0 69 21 80 49 5 14 11
84 13 154 l3 129 37 34 c27 24 47 34 70 34 31 1 32 1 14 15 -22 17 -59 18 -93
5z"/>
<path d="M601 2949 c-1 -5 89 -233 122 -309 24 -55 64 -207 76 -287 6 -39 11
-123 11 -186 0 -138 14 -218 47 -274 14 -24 26 -43 28 -43 2 0 -5 21 -15 48
-12 33 -20 92 -25 197 -12 263 -42 392 -155 660 -48 114 -89 203 -89 194z"/>
<path d="M2602 2230 c-43 -18 -48 -86 -8 -112 20 -14 63 -8 79 10 47 51 -7
127 -71 102z"/>
<path d="M2720 2171 c0 -58 -27 -85 -84 -86 -25 0 -46 -2 -46 -4 0 -14 41 -30
77 -31 34 0 46 5 67 31 30 35 32 58 11 99 -20 39 -25 38 -25 -9z"/>
<path d="M2720 1780 c0 -81 -22 -141 -89 -235 l-56 -80 -3 -157 c-3 -138 -1
-158 12 -158 14 0 16 18 16 120 0 133 8 162 64 239 77 104 111 226 82 295 -8
20 -17 36 -20 36 -4 0 -6 -27 -6 -60z"/>
<path d="M1160 1548 c0 -3 10 -28 22 -55 18 -40 22 -72 26 -190 3 -117 7 -143
19 -143 13 0 14 18 8 118 -7 126 -20 187 -54 242 -11 19 -21 32 -21 28z"/>
<path d="M2688 840 l3 -260 -27 -25 c-14 -13 -41 -27 -58 -30 -17 -3 -401 -4
-853 -3 -782 3 -821 2 -806 -14 15 -17 69 -18 864 -18 l848 0 28 24 28 24 3
234 c3 240 0 283 -21 311 -10 14 -11 -34 -9 -243z"/>
</g>
</svg>
